:SAMPLES-PER-SECOND 30
:FULLY-SPECIFIED
:DEGREES
641
root  67.6763 36.2129 2.48526 171.495 88.9783 -178.638
RightUpLeg  -21.5609 3.18353 -2.72295
RightLeg  28.7221 6.77843 3.78335
RightFoot  3.92044 -0.162497 1.39304
RightToes  2.21189e-009 0 -3.6325e-017
Spine  3.03555 -0.621424 12.6948
Spine1  16.5559 3.05617 -8.82417
HEad  -41.2413 20.9128 -8.75304
LeftShoulder1  0.945732 0.0587809 -21.0525
LeftArm  -46.3598 -63.7505 -5.44848
LeftForeArm  7.62174 -38.8615 -8.55804
LeftHand  -0.125409 -0.38387 2.63764
RightShoulder  -0.0511645 -4.75704 -5.59079
RightArm  -32.0072 38.5837 38.7899
RightForeArm  -24.2133 46.6909 11.8023
RightHand  -31.492 81.0311 -36.3142
LeftUpLeg  1.58755 -0.525298 -0.267515
LeftLeg  48.3566 -2.31794 -2.42654
LeftFoot  -22.2363 -0.368001 -5.44271
LeftToes  -3.01956e-010 3.07132e-011 1.04116e-011
642
root  68.5327 35.6218 2.76802 -140.994 85.8817 -130.936
RightUpLeg  -23.1301 0.966924 0.116717
RightLeg  35.2524 5.78614 4.11564
RightFoot  0.0607117 0.0385175 -0.394906
RightToes  2.21189e-009 0 -3.6325e-017
Spine  4.71073 -1.62223 15.1421
Spine1  15.6795 2.2194 -8.21275
HEad  -44.7845 27.1331 -16.4891
LeftShoulder1  1.01119 -0.508 -18.631
LeftArm  -57.4564 -64.74 2.09903
LeftForeArm  5.62238 -35.1746 -7.58834
LeftHand  -0.0102303 -2.22174 0.396693
RightShoulder  0.010835 -3.54106 -9.48357
RightArm  -33.1622 30.9421 43.9387
RightForeArm  -0.809562 57.7868 31.2036
RightHand  -15.5509 71.2994 -23.2967
LeftUpLeg  -5.33216 -0.808355 3.83929
LeftLeg  61.7937 -2.74434 -4.76967
LeftFoot  -13.2842 -0.0613751 -7.36522
LeftToes  -3.01956e-010 3.07132e-011 1.04116e-011
643
root  69.3951 35.155 3.12873 -151.175 82.6036 -140.969
RightUpLeg  -23.9952 -2.49858 2.08557
RightLeg  40.4757 5.1738 4.43299
RightFoot  -3.69996 0.0991297 -1.82247
RightToes  2.21189e-009 0 -3.6325e-017
Spine  5.45027 -2.12266 15.7548
Spine1  15.4016 1.33777 -6.49179
HEad  -47.8333 31.3583 -23.1602
LeftShoulder1  1.04564 -0.987841 -16.5486
LeftArm  -69.858 -66.5277 9.55561
LeftForeArm  3.30092 -31.1012 -6.6339
LeftHand  0.350981 -3.04188 -4.84279
RightShoulder  0.0504175 -4.4192 -15.2737
RightArm  -24.8777 -1.21152 78.5386
RightForeArm  125.864 73.561 147.922
RightHand  -7.04763 48.0887 -15.0756
LeftUpLeg  -12.1791 -1.713 6.75962
LeftLeg  71.6888 -1.52851 -4.31531
LeftFoot  -6.12558 0.33484 -6.46506
LeftToes  -3.01956e-010 3.07132e-011 1.04116e-011
644
root  70.1341 34.9814 3.43546 -153.769 81.6021 -143.98
RightUpLeg  -24.4628 -3.98547 2.76101
RightLeg  43.0859 5.02083 4.69802
RightFoot  -6.34099 0.0643045 -2.43156
RightToes  2.21189e-009 0 -3.6325e-017
Spine  6.12094 -1.89591 14.7426
Spine1  15.3105 1.03574 -5.0473
HEad  -51.1429 33.2936 -26.5768
LeftShoulder1  1.0353 -1.28525 -14.7336
LeftArm  -84.3732 -67.1219 18.8482
LeftForeArm  -0.225927 -26.9921 -5.85456
LeftHand  0.996089 -2.93917 -13.4243
RightShoulder  0.124419 -4.95988 -19.5332
RightArm  -13.0982 -26.083 104.114
RightForeArm  139.087 70.4762 145.362
RightHand  12.3271 60.4567 19.895
LeftUpLeg  -17.5731 -1.17773 7.87782
LeftLeg  76.1088 -1.24079 -4.60866
LeftFoot  -6.51342 0.203194 -3.90142
LeftToes  -3.01956e-010 3.07132e-011 1.04116e-011
645
root  70.8179 35.0901 3.71468 -157.066 80.4953 -147.667
RightUpLeg  -23.7875 -4.53774 3.29845
RightLeg  43.4581 4.31482 4.05422
RightFoot  -7.71961 0.0375124 -2.82708
RightToes  2.21189e-009 0 -3.6325e-017
Spine  6.08518 -1.70261 14.9028
Spine1  16.3973 1.26174 -5.12325
HEad  -53.9753 35.8351 -31.7561
LeftShoulder1  1.02463 -1.4687 -13.5882
LeftArm  -101.355 -68.107 31.3982
LeftForeArm  -4.11851 -23.4712 -4.88983
LeftHand  1.73841 -3.65042 -22.0117
RightShoulder  0.307132 -5.67774 -24.2227
RightArm  0.307258 -26.7781 115.167
RightForeArm  79.7941 79.5216 60.384
RightHand  27.3673 61.1248 42.1115
LeftUpLeg  -21.5698 -0.920646 8.6604
LeftLeg  75.5469 -1.42024 -5.1902
LeftFoot  -6.69005 0.157354 -2.91431
LeftToes  -3.01956e-010 3.07132e-011 1.04116e-011
646
root  71.32 35.435 3.83698 -156.843 80.6749 -148.613
RightUpLeg  -23.2308 -4.30076 3.47176
RightLeg  41.7137 4.33111 3.82936
RightFoot  -7.71569 0.0481065 -3.18109
RightToes  2.21189e-009 0 -3.6325e-017
Spine  7.10688 -1.21506 16.1378
Spine1  14.9288 2.17483 -6.68392
HEad  -56.306 37.6345 -34.7129
LeftShoulder1  1.10628 -2.30463 -12.0771
LeftArm  -123.025 -69.6903 39.9169
LeftForeArm  2.44621 -21.3033 -2.84029
LeftHand  2.23012 -2.65592 -31.1821
RightShoulder  0.82478 -8.57996 -28.033
RightArm  -12.361 -26.2592 134.258
RightForeArm  58.5895 65.183 18.656
RightHand  38.9895 64.901 55.7427
LeftUpLeg  -24.4914 -0.552147 8.55328
LeftLeg  70.1765 -2.00694 -5.38691
LeftFoot  -8.87305 0.136158 -3.93209
LeftToes  -3.01956e-010 3.07132e-011 1.04116e-011
647
root  71.7341 35.9516 3.91614 -156.231 80.6806 -148.894
RightUpLeg  -21.6655 -3.82678 3.72471
RightLeg  38.2592 4.12074 3.19356
RightFoot  -6.84518 0.0720409 -2.98618
RightToes  2.21189e-009 0 -3.6325e-017
Spine  7.95891 -0.873333 16.5913
Spine1  13.5954 2.46801 -6.87018
HEad  -58.2826 39.0714 -38.2472
LeftShoulder1  1.25868 -4.54233 -8.12612
LeftArm  -137.468 -68.6469 37.0175
LeftForeArm  14.3454 -22.435 -3.18067
LeftHand  2.21588 -1.2074 -37.6547
RightShoulder  0.836502 -8.98969 -26.8417
RightArm  -11.1921 -21.665 137.051
RightForeArm  60.363 45.7605 6.97964
RightHand  38.1398 63.0774 56.0341
LeftUpLeg  -25.2487 -1.26958 8.60549
LeftLeg  60.4358 -3.36595 -5.74467
LeftFoot  -10.395 0.102833 -4.55799
LeftToes  -3.01956e-010 3.07132e-011 1.04116e-011
648
root  72.2615 36.5749 4.00454 -161.575 80.9938 -156.502
RightUpLeg  -21.1015 -3.58683 2.76361
RightLeg  34.4089 4.2538 2.86318
RightFoot  -5.49392 0.144402 -3.55965
RightToes  2.21189e-009 0 -3.6325e-017
Spine  7.20754 -0.750332 13.5922
Spine1  12.3809 1.7862 -6.15485
HEad  -63.0854 38.7975 -41.4732
LeftShoulder1  1.1985 -5.28782 -5.87535
LeftArm  -150.521 -67.5632 39.8368
LeftForeArm  24.7809 -23.4295 -3.48333
LeftHand  2.03852 0.0590293 -42.4834
RightShoulder  0.867174 -10.4856 -23.5468
RightArm  -5.81722 -20.2259 135.864
RightForeArm  61.719 34.7959 4.31485
RightHand  34.4823 62.8207 51.2418
LeftUpLeg  -25.0743 -3.02905 7.53332
LeftLeg  46.7518 -5.78215 -6.17437
LeftFoot  -9.25283 0.0976631 -2.84001
LeftToes  -3.01956e-010 3.07132e-011 1.04116e-011
649
root  72.6993 37.1731 3.9918 -162.862 82.2153 -159.563
RightUpLeg  -19.948 -2.6733 2.0933
RightLeg  29.8639 4.71584 2.67137
RightFoot  -3.97517 0.196279 -3.47041
RightToes  2.21189e-009 0 -3.6325e-017
Spine  7.49196 -0.408884 11.9847
Spine1  11.7864 1.89751 -6.17991
HEad  -67.8074 37.9626 -44.9948
LeftShoulder1  1.27559 -4.8617 -7.68763
LeftArm  -164.957 -67.3454 49.7648
LeftForeArm  33.1897 -25.33 -3.70275
LeftHand  2.68611 -0.931936 -46.5937
RightShoulder  0.793725 -11.4021 -20.98
RightArm  0.362049 -20.1743 133.319
RightForeArm  58.5833 34.4797 4.51128
RightHand  27.9595 62.8296 41.99
LeftUpLeg  -23.1684 -4.88486 6.93819
LeftLeg  33.1211 -6.85293 -4.49743
LeftFoot  -5.62672 0.0963226 -1.06349
LeftToes  -3.01956e-010 3.07132e-011 1.04116e-011
650
root  73.0977 37.6499 3.94054 -160.742 83.4495 -158.921
RightUpLeg  -18.7718 -2.07468 1.82672
RightLeg  25.6584 5.45342 2.62523
RightFoot  -2.53676 0.220973 -3.09246
RightToes  2.21189e-009 0 -3.6325e-017
Spine  7.62507 -0.0747798 11.388
Spine1  10.9737 2.25353 -6.61105
HEad  -72.4071 36.567 -47.1966
LeftShoulder1  1.15406 -5.55549 -4.9202
LeftArm  -175.464 -66.5037 49.2235
LeftForeArm  45.7166 -28.6644 -3.76919
LeftHand  3.70971 -2.49044 -50.9159
RightShoulder  0.63574 -12.9728 -17.243
RightArm  4.39407 -22.7274 129.275
RightForeArm  56.1213 42.9881 6.85309
RightHand  19.2501 61.8396 29.6395
LeftUpLeg  -21.8388 -5.63683 6.68885
LeftLeg  26.3496 -5.33764 -2.53375
LeftFoot  -2.79529 0.12496 -1.47803
LeftToes  -3.01956e-010 3.07132e-011 1.04116e-011
651
root  73.2707 38.0069 3.79733 -154.552 85.7379 -153.628
RightUpLeg  -17.7676 0.2057 1.38057
RightLeg  21.9622 5.75673 2.32699
RightFoot  -0.696828 0.256838 -2.80525
RightToes  2.21189e-009 0 -3.6325e-017
Spine  8.92142 0.170382 11.5068
Spine1  10.0135 3.05376 -8.22003
HEad  -76.9701 35.039 -49.6352
LeftShoulder1  0.977749 -6.65366 -1.33407
LeftArm  176.62 -64.6605 47.1774
LeftForeArm  58.794 -33.2556 -4.19551
LeftHand  4.63203 -3.82696 -53.9481
RightShoulder  0.362226 -14.3484 -13.3597
RightArm  7.81497 -24.6175 124.704
RightForeArm  56.4186 51.1891 9.64447
RightHand  11.4179 59.7456 18.187
LeftUpLeg  -20.2125 -3.79996 6.14528
LeftLeg  23.2046 -4.22537 -1.63391
LeftFoot  -1.84574 0.0763116 -0.729606
LeftToes  -3.01956e-010 3.07132e-011 1.04116e-011
652
root  73.5291 38.3332 3.73074 -155.633 86.7525 -156.265
RightUpLeg  -17.4301 0.74366 0.723302
RightLeg  18.6835 6.29499 2.07663
RightFoot  0.671814 0.27383 -2.55467
RightToes  2.21189e-009 0 -3.6325e-017
Spine  8.66299 0.271008 11.4174
Spine1  10.4944 3.6653 -9.92862
HEad  -80.5698 33.2119 -52.2521
LeftShoulder1  0.841334 -7.01547 0.542247
LeftArm  170.789 -63.8266 48.9555
LeftForeArm  70.8731 -39.2152 -5.1707
LeftHand  7.99663 -8.60285 -56.9319
RightShoulder  0.123468 -14.5792 -10.8782
RightArm  8.39494 -25.318 120.372
RightForeArm  59.1816 59.0539 13.4911
RightHand  4.94709 58.1517 7.86577
LeftUpLeg  -19.2234 -0.238403 5.25459
LeftLeg  18.9966 -6.58823 -2.16968
LeftFoot  0.611066 0.146875 -1.47153
LeftToes  -3.01956e-010 3.07132e-011 1.04116e-011
